<?xml version="1.0" encoding="UTF-8"?><svg id="Layer_2" xmlns="http://www.w3.org/2000/svg" viewBox="0 0 1920 1080"><defs><style>.cls-1{fill:#fff;}</style></defs><circle class="cls-1" cx="416.81" cy="63.37" r="2.9"/><circle class="cls-1" cx="1605.5" cy="988.39" r=".89"/><circle class="cls-1" cx="542.08" cy="454.48" r=".59"/><circle class="cls-1" cx="1859.03" cy="959.62" r="1.98"/><circle class="cls-1" cx="932.81" cy="501.62" r=".78"/><circle class="cls-1" cx="296.79" cy="208.9" r=".92"/><circle class="cls-1" cx="1230.28" cy="1030.04" r=".94"/><circle class="cls-1" cx="789.95" cy="236.6" r="1.68"/><circle class="cls-1" cx="1207.92" cy="685.51" r="1.18"/><circle class="cls-1" cx="1714.72" cy="612.1" r="1.47"/><circle class="cls-1" cx="1353.92" cy="1040.3" r="1.01"/><circle class="cls-1" cx="1.31" cy="422.09" r="1.31"/><circle class="cls-1" cx="233.17" cy="20.29" r="1.49"/><circle class="cls-1" cx="103.13" cy="547.62" r=".78"/><circle class="cls-1" cx="57.01" cy="912.46" r=".64"/><circle class="cls-1" cx="213.64" cy="1038.52" r="1.35"/><circle class="cls-1" cx="542.57" cy="939.56" r=".98"/><circle class="cls-1" cx="1807.25" cy="644.32" r=".95"/><circle class="cls-1" cx="1391.17" cy="432" r=".62"/><circle class="cls-1" cx="717.33" cy="1078.96" r="1.04"/><circle class="cls-1" cx="854.58" cy="918.76" r="1.12"/><circle class="cls-1" cx="717.74" cy="584.06" r="1.29"/><circle class="cls-1" cx="572.05" cy="467.38" r=".58"/><circle class="cls-1" cx="1313.12" cy="34.35" r=".6"/><circle class="cls-1" cx="442.66" cy="633.94" r=".68"/><circle class="cls-1" cx="1381.39" cy="139.7" r=".71"/><circle class="cls-1" cx="1283.78" cy="278.7" r="1.18"/><circle class="cls-1" cx="1890.76" cy="122.95" r="1.46"/><circle class="cls-1" cx="1918.16" cy="375.75" r="1.84"/><circle class="cls-1" cx="1748.93" cy="68.54" r="1.47"/><circle class="cls-1" cx="1790.18" cy="149.44" r="1.38"/><circle class="cls-1" cx="1124.11" cy="362.06" r=".79"/><circle class="cls-1" cx="1128.91" cy=".44" r=".44"/><circle class="cls-1" cx="1565.71" cy="783.52" r="1.16"/><circle class="cls-1" cx="1368.46" cy="776.34" r=".79"/><circle class="cls-1" cx="1809.75" cy="529.46" r=".74"/><circle class="cls-1" cx="1566.83" cy="618.4" r=".54"/><circle class="cls-1" cx="1024.48" cy="308.36" r=".73"/><circle class="cls-1" cx="783.44" cy="473.12" r=".49"/><circle class="cls-1" cx="1500.47" cy="1015.77" r=".62"/><circle class="cls-1" cx="951.92" cy="386.73" r=".36"/><circle class="cls-1" cx="1148.58" cy="552.07" r=".65"/><circle class="cls-1" cx="506.5" cy="957.21" r=".42"/><circle class="cls-1" cx="147.7" cy="1041.77" r=".93"/><circle class="cls-1" cx="505.5" cy="866.49" r=".3"/></svg>